<?xml version="1.0" standalone="no"?>
<!DOCTYPE svg PUBLIC "-//W3C//DTD SVG 20010904//EN"
 "http://www.w3.org/TR/2001/REC-SVG-20010904/DTD/svg10.dtd">
<svg version="1.0" xmlns="http://www.w3.org/2000/svg"
 width="512.000000pt" height="512.000000pt" viewBox="0 0 512.000000 512.000000"
 preserveAspectRatio="xMidYMid meet">

<g transform="translate(0.000000,512.000000) scale(0.100000,-0.100000)"
fill="#000000" stroke="none">
<path d="M2375 5106 c-246 -41 -421 -124 -578 -275 -241 -231 -341 -532 -340
-1021 2 -772 291 -1276 808 -1411 249 -66 557 -38 768 67 250 125 423 339 527
653 72 215 100 409 100 689 0 472 -88 758 -302 988 -142 152 -339 257 -562
299 -113 22 -322 27 -421 11z m378 -297 c269 -54 461 -217 550 -464 75 -211
96 -573 51 -870 -61 -397 -226 -661 -480 -768 -200 -85 -499 -73 -689 26 -84
44 -218 180 -274 281 -121 214 -180 526 -168 881 13 356 80 557 241 720 181
183 468 256 769 194z"/>
<path d="M1782 2360 c-13 -6 -42 -23 -65 -38 -168 -115 -466 -256 -712 -337
-239 -78 -299 -109 -390 -200 -160 -159 -227 -380 -228 -750 -1 -273 24 -439
77 -502 13 -16 86 -61 162 -100 894 -460 2152 -562 3209 -258 338 97 739 272
821 359 40 42 59 121 74 316 18 226 -2 477 -51 635 -29 97 -90 210 -146 274
-87 99 -187 153 -418 224 -201 62 -432 169 -645 297 -91 55 -148 83 -175 87
-106 12 -186 -103 -140 -201 45 -95 523 -344 865 -451 80 -25 169 -57 197 -71
101 -50 176 -162 210 -315 13 -58 17 -124 17 -314 -1 -132 -5 -253 -10 -269
-7 -22 -26 -37 -74 -62 -394 -203 -931 -345 -1460 -385 -225 -17 -691 -6 -890
21 -469 62 -889 184 -1228 354 l-91 46 -8 47 c-13 78 -10 459 5 537 21 110 61
201 116 262 57 65 109 93 237 130 246 70 581 224 808 370 100 65 122 91 128
148 10 104 -97 185 -195 146z"/>
</g>
</svg>
